<svg id="Layer_1" data-name="Layer 1" xmlns="http://www.w3.org/2000/svg" viewBox="0 0 332.45 35.67"><defs><style>.cls-1{fill:#f0834c;}.cls-2{fill:#ed6a37;}</style></defs><path class="cls-1" d="M91.25,38.82A1.27,1.27,0,0,0,91.7,40L95,43.17v.1H78.4v-.1L81.7,40a1.3,1.3,0,0,0,.5-1.2v-13H70.6V38.82a1.2,1.2,0,0,0,.5,1.2l3.3,3.15v.1H57.75v-.1L61.1,40a1.27,1.27,0,0,0,.45-1.2V12.57a1.27,1.27,0,0,0-.45-1.2L57.75,8.22v-.1H74.4v.1l-3.3,3.15a1.2,1.2,0,0,0-.5,1.2v12.2H82.2V12.57a1.2,1.2,0,0,0-.5-1.2L78.4,8.22v-.1H95v.1l-3.3,3.15a1.27,1.27,0,0,0-.45,1.2Z" transform="translate(-8 -8)"/><path class="cls-1" d="M96.1,30.87c0-8.4,5.25-12.75,13.15-12.75s13.2,4.3,13.2,12.8-5.3,12.75-13.2,12.75S96.1,39.37,96.1,30.87Zm9.1,0c0,9.65,1.55,11.9,4,11.9s4-2.15,4-11.85-1.55-11.85-4-11.85S105.2,21.17,105.2,30.87Z" transform="translate(-8 -8)"/><path class="cls-1" d="M166.25,39.67a1.2,1.2,0,0,0,.5,1.2l2.45,2.3v.1h-14v-.1l2.35-2.3a1.31,1.31,0,0,0,.5-1.15c0-.8.15-7.5.15-9.9,0-4.5-.7-7.55-3.85-7.55a5,5,0,0,0-3.95,2.15,18.17,18.17,0,0,1,.45,4.25c0,3.1-.1,7-.15,11a1.27,1.27,0,0,0,.45,1.2l2.5,2.3v.1H139.6v-.1l2.4-2.3a1.27,1.27,0,0,0,.45-1.15c0-.75.15-7.5.15-9.9,0-4.55-.7-7.55-3.8-7.55a4.46,4.46,0,0,0-3.7,2.2v15.2c0,.65,0,.8.45,1.2l2.45,2.3v.1H124v-.1l2.45-2.3c.45-.4.45-.55.45-1.2V22.37a1.41,1.41,0,0,0-.45-1.25L124,18.62v-.1h11.1v5.3a8,8,0,0,1,8-5.7c3.7,0,6.2,2.05,7.25,5.9a8.64,8.64,0,0,1,8.35-5.9c4.95,0,7.75,3.65,7.75,10.55C166.4,32,166.3,35.72,166.25,39.67Z" transform="translate(-8 -8)"/><path class="cls-1" d="M178.8,29.77v.1c0,6.5,3.3,9.15,7.15,9.15a8.12,8.12,0,0,0,7.6-4.6h.1c-1.3,6.3-5.2,9.25-11.05,9.25-6.3,0-12.25-3.8-12.25-12.6,0-9.25,5.9-12.95,12.55-12.95,5.3,0,10.95,2.5,10.95,10.55,0,.15,0,.5,0,1.1Zm0-.9h7.35c0-.65,0-1.3,0-1.5,0-6.55-1.35-8.3-3.4-8.3C180.3,19.07,178.9,21.62,178.8,28.87Z" transform="translate(-8 -8)"/><path class="cls-1" d="M205.55,43.17,208.9,40a1.27,1.27,0,0,0,.45-1.2V12.57a1.27,1.27,0,0,0-.45-1.2l-3.35-3.15v-.1h16.7c11.6,0,17.3,6.6,17.3,16.8,0,11.6-6.65,18.35-18.25,18.35H205.55Zm14.95-.9c6.5,0,8.8-5.8,8.8-16.65s-2.3-16.5-8.45-16.5h-1.6c-.7,0-.85.1-.85,1v31.2c0,.95.15,1,1,1Z" transform="translate(-8 -8)"/><path class="cls-1" d="M250.3,29.77v.1c0,6.5,3.3,9.15,7.15,9.15a8.12,8.12,0,0,0,7.6-4.6h.1c-1.3,6.3-5.2,9.25-11,9.25-6.3,0-12.25-3.8-12.25-12.6,0-9.25,5.9-12.95,12.55-12.95,5.3,0,11,2.5,11,10.55,0,.15,0,.5-.05,1.1Zm0-.9h7.35c.05-.65.05-1.3.05-1.5,0-6.55-1.35-8.3-3.4-8.3C251.8,19.07,250.4,21.62,250.3,28.87Z" transform="translate(-8 -8)"/><path class="cls-1" d="M267.7,31.17c0-9.65,6.85-13,13.3-13a26.31,26.31,0,0,1,8.5,1.5l-3.2,8.6h-.1l-3.85-8.55c-.2-.5-.3-.6-.9-.6h-.25c-3.05,0-4.75,3.25-4.75,9.7,0,7.65,3.35,10.2,6.75,10.2a6.85,6.85,0,0,0,6.15-4.1h.1c-.85,5.4-4.35,8.8-10.1,8.8C273.4,43.67,267.7,39.67,267.7,31.17Z" transform="translate(-8 -8)"/><path class="cls-1" d="M291.35,30.87c0-8.4,5.25-12.75,13.15-12.75s13.2,4.3,13.2,12.8-5.3,12.75-13.2,12.75S291.35,39.37,291.35,30.87Zm9.1,0c0,9.65,1.55,11.9,4.05,11.9s4.05-2.15,4.05-11.85S307,19.07,304.5,19.07,300.45,21.17,300.45,30.87Z" transform="translate(-8 -8)"/><path class="cls-1" d="M337.7,27.62h-.1l-4-4.7c-.25-.3-.55-.5-.9-.25a7.8,7.8,0,0,0-2.15,2.9v13.5c0,.55,0,.8.75,1.25l4.9,2.85v.1H319.5v-.1l2.45-2.3c.45-.4.45-.55.45-1.2V22.37a1.41,1.41,0,0,0-.45-1.25l-2.45-2.5v-.1h11.1v6.4c.85-3.55,2.95-6.8,6.45-6.8a4.1,4.1,0,0,1,3.4,1.65Z" transform="translate(-8 -8)"/><polygon class="cls-1" points="40 29.75 40 0 0 0 40 29.75"/><polygon class="cls-2" points="0 29.75 0 0 40 0 0 29.75"/></svg>